<?xml version="1.0" encoding="UTF-8" standalone="no"?>
<!-- Created with Inkscape (http://www.inkscape.org/) -->

<svg
   xmlns:dc="http://purl.org/dc/elements/1.1/"
   xmlns:cc="http://creativecommons.org/ns#"
   xmlns:rdf="http://www.w3.org/1999/02/22-rdf-syntax-ns#"
   xmlns:svg="http://www.w3.org/2000/svg"
   xmlns="http://www.w3.org/2000/svg"
   xmlns:sodipodi="http://sodipodi.sourceforge.net/DTD/sodipodi-0.dtd"
   xmlns:inkscape="http://www.inkscape.org/namespaces/inkscape"
   width="210mm"
   height="297mm"
   viewBox="0 0 210 297"
   version="1.1"
   id="svg1869"
   inkscape:version="0.92.3 (2405546, 2018-03-11)"
   sodipodi:docname="Parte1.svg">
  <defs
     id="defs1863" />
  <sodipodi:namedview
     id="base"
     pagecolor="#ffffff"
     bordercolor="#666666"
     borderopacity="1.0"
     inkscape:pageopacity="0.0"
     inkscape:pageshadow="2"
     inkscape:zoom="1.4"
     inkscape:cx="86.680896"
     inkscape:cy="146.2132"
     inkscape:document-units="mm"
     inkscape:current-layer="g6128"
     showgrid="false"
     inkscape:window-width="1920"
     inkscape:window-height="1015"
     inkscape:window-x="0"
     inkscape:window-y="0"
     inkscape:window-maximized="1" />
  <metadata
     id="metadata1866">
    <rdf:RDF>
      <cc:Work
         rdf:about="">
        <dc:format>image/svg+xml</dc:format>
        <dc:type
           rdf:resource="http://purl.org/dc/dcmitype/StillImage" />
        <dc:title />
      </cc:Work>
    </rdf:RDF>
  </metadata>
  <g
     inkscape:label="Capa 1"
     inkscape:groupmode="layer"
     id="layer1">
    <g
       id="g6128"
       transform="translate(-8.46208,47.94888)">
      <path
         id="path1737"
         d="m 95.05942,183.17475 c -0.26112,0.004 -0.52213,0.0135 -0.7829,0.0279 -0.7832,0.56531 -1.58502,1.16444 -2.38125,1.78956 0.096,0.0229 0.19063,0.0487 0.28318,0.0811 0.33054,0.11573 0.6341,0.30231 0.88625,0.5643 2.10045,-0.77949 4.19708,-1.46219 6.26422,-1.99264 -1.40277,-0.30908 -2.83393,-0.46671 -4.2695,-0.47026 z m -1.64383,0.0765 c -1.12527,0.0956 -2.2407,0.28612 -3.33468,0.56947 l -0.51263,1.24902 c 0.25689,-0.0559 0.51964,-0.10429 0.78444,-0.13487 0.30308,-0.035 0.60761,-0.0489 0.90588,-0.0326 0.71639,-0.57031 1.44208,-1.12432 2.15699,-1.65106 z m 6.86623,0.63975 c -2.27135,0.53818 -4.59042,1.27493 -6.91999,2.13424 0.0546,0.0901 0.10636,0.1844 0.15091,0.2868 0.19296,0.44362 0.2294,0.89403 0.14108,1.32137 2.26983,-0.0104 4.57173,0.0853 7.03678,0.78186 0.11528,0.0326 0.23233,0.0723 0.3483,0.10749 0.16666,-0.59337 0.25471,-1.1892 0.24339,-1.78129 -0.018,-0.94588 -0.27993,-1.88698 -0.83458,-2.80758 -0.0552,-0.0145 -0.11054,-0.0288 -0.16589,-0.0429 z m -10.76212,0.0687 c -0.81385,0.23948 -1.61208,0.5303 -2.39003,0.87075 l 0.37931,0.88057 c 0.35631,-0.1363 0.87519,-0.33228 1.49913,-0.50436 z m 11.54502,0.13385 c 0.44408,0.86316 0.66519,1.74982 0.68215,2.63808 0.0122,0.64619 -0.0836,1.29089 -0.26355,1.92805 0.543,0.1802 1.09513,0.39607 1.65518,0.64337 0.38576,-1.26036 0.68887,-2.56703 0.3049,-4.25917 -0.7724,-0.36705 -1.56686,-0.68446 -2.37868,-0.95033 z m -14.35984,0.92914 c -0.70487,0.32149 -1.39104,0.68348 -2.05518,1.08417 0.37217,0.14873 0.747,0.29982 1.1307,0.45837 0.48416,-0.30249 0.93422,-0.52446 1.29654,-0.67851 z m 3.9641,0.3545 c -0.0878,0.006 -0.17481,0.0104 -0.26356,0.0207 -0.35557,0.0411 -0.71239,0.11513 -1.0547,0.20205 l -0.56637,1.38028 c 0.6047,-0.53918 1.23814,-1.07607 1.88463,-1.603 z m 0.73173,0.009 c -0.70673,0.56554 -1.3997,1.14477 -2.06187,1.72703 1.0795,-0.44817 2.16074,-0.8856 3.24321,-1.2945 -0.16455,-0.13291 -0.35042,-0.23286 -0.55759,-0.3054 -0.1914,-0.067 -0.40357,-0.10466 -0.62375,-0.12713 z m -2.61948,0.3731 c -0.44088,0.13588 -0.80532,0.27173 -1.08829,0.37931 l 0.4775,1.10949 z m 4.1367,0.42944 c -1.22409,0.45912 -2.44877,0.95563 -3.67109,1.46606 1.31588,0.0291 2.61662,-0.005 3.9238,-0.0191 0.10001,-0.37121 0.0882,-0.74272 -0.0837,-1.13792 -0.0497,-0.11428 -0.107,-0.21581 -0.16899,-0.30902 z m -5.657,0.12454 c -0.26628,0.1138 -0.58513,0.26725 -0.94208,0.47284 0.45646,0.19217 0.9275,0.39687 1.40767,0.60926 z m -3.12386,0.0915 c -0.99266,0.64841 -1.92759,1.38329 -2.79413,2.19624 0.85376,-0.14842 1.71053,-0.28632 2.57091,-0.41186 0.27929,-0.3673 0.61695,-0.7004 0.97565,-0.99218 0.13869,-0.11283 0.2808,-0.21796 0.42322,-0.31936 -0.39774,-0.16274 -0.78896,-0.31965 -1.17565,-0.47284 z m 1.69035,0.68212 c -0.2181,0.14389 -0.43617,0.30149 -0.64492,0.47129 -0.2049,0.16669 -0.39966,0.34445 -0.57672,0.53175 0.90501,-0.12733 1.81211,-0.24633 2.71921,-0.3638 -0.51369,-0.2255 -1.01021,-0.43632 -1.49757,-0.63924 z m 21.09896,0.0212 c 0.12115,1.86585 -0.10901,2.89191 -0.33692,4.12171 0.27572,0.1864 0.55374,0.38126 0.83457,0.58705 0.16232,-0.79867 0.26705,-1.53898 0.31729,-2.1823 0.0574,-0.73672 0.048,-1.35106 -0.008,-1.78748 -0.008,-0.0653 -0.0193,-0.11812 -0.0294,-0.17519 -0.25479,-0.19408 -0.51416,-0.38206 -0.77774,-0.56379 z m 1.2945,0.97462 c 0.0333,0.43904 0.0317,0.97118 -0.0164,1.58853 -0.0562,0.72006 -0.176,1.55053 -0.36743,2.4474 1.82388,1.38793 3.76116,3.20742 5.841,5.56503 0.018,-0.94229 -0.0884,-1.89322 -0.32867,-2.84788 -1.22528,-2.58875 -2.97219,-4.88911 -5.12836,-6.75308 z m -13.88287,0.0171 c -0.14627,0.24899 -0.41731,0.64293 -0.52039,0.7829 l 0.50075,0.21497 c 0.17095,-0.23554 0.44413,-0.66801 0.61185,-0.98754 -0.19767,-0.005 -0.39513,-0.009 -0.59221,-0.0104 z m -0.33436,0.001 c -0.16692,7.9e-4 -0.3339,0.001 -0.50075,0.002 -0.0769,0.17832 -0.17634,0.35084 -0.29041,0.51883 l 0.39069,0.16847 c 0.11226,-0.1555 0.28157,-0.44402 0.40047,-0.68937 z m -1.0232,0.005 c -1.2021,0.0142 -2.40749,0.0424 -3.63593,0.0176 0.82648,0.39435 1.63656,0.83365 2.43343,1.30948 0.22868,-0.17636 0.4377,-0.35985 0.62116,-0.54829 0.24641,-0.25313 0.43974,-0.51466 0.58134,-0.77876 z m 2.25568,0.0139 c -0.16306,0.30948 -0.46812,0.8246 -0.68728,1.07745 l 0.34417,0.14832 c 0.28832,-0.32759 0.59,-0.70746 0.92139,-1.202 -0.19312,-0.01 -0.38574,-0.0171 -0.57828,-0.0238 z m 1.20253,0.062 c -0.78652,1.22112 -1.7703,2.0678 -2.49753,2.6696 0.18008,0.12792 0.36182,0.25134 0.54054,0.38293 0.90808,-0.88106 1.95932,-1.64811 2.49545,-3.00964 -0.17992,-0.0165 -0.35928,-0.0299 -0.53846,-0.0429 z m -9.69555,0.0899 c -0.85677,0.11219 -1.71304,0.22565 -2.56521,0.34881 -0.2517,0.36757 -0.42556,0.76064 -0.47337,1.17151 1.00807,-0.525 2.02108,-1.03199 3.03858,-1.52033 z m 10.9859,0.03 c -0.72631,1.31061 -1.68471,2.36187 -2.71973,3.32745 0.21862,0.16698 0.43722,0.33419 0.65371,0.50694 1.07942,-1.06642 2.09015,-2.26306 2.97346,-3.7021 -0.30429,-0.0518 -0.60637,-0.0946 -0.90744,-0.13229 z m -9.10746,0.002 c 0.33687,0.78962 0.67093,1.57917 1.00666,2.36885 0.61233,-0.27003 1.20944,-0.58879 1.73583,-0.94361 -0.89612,-0.5278 -1.81005,-1.00394 -2.74249,-1.42525 z m -0.4599,0.10799 c -0.41042,0.89108 -0.74083,1.87153 -1.00047,2.92231 0.91636,-0.14232 1.70548,-0.37296 2.03502,-0.48886 -0.34491,-0.81123 -0.6885,-1.62235 -1.03455,-2.43345 z m 11.43857,0.21085 c -1.55506,2.59356 -2.06909,3.15759 -3.18637,4.12894 0.3683,0.30867 0.73432,0.62383 1.09656,0.94878 1.02399,-0.9333 1.89963,-1.94066 2.54508,-2.98535 0.35505,-0.57467 0.63688,-1.15974 0.84336,-1.74821 -0.11165,-0.0339 -0.22442,-0.072 -0.33538,-0.10335 -0.32383,-0.0915 -0.64434,-0.16933 -0.96325,-0.24081 z m -12.51603,0.002 c -1.12871,0.53958 -2.25224,1.10258 -3.36981,1.68775 0.0696,0.43049 0.30268,0.68336 0.66352,0.86351 0.0669,0.0334 0.14015,0.0621 0.216,0.0889 0.79688,-0.89525 1.63359,-1.76856 2.49029,-2.64015 z m -3.50729,0.0858 c -0.95433,0.14279 -1.90402,0.29751 -2.84684,0.47076 -1.18158,1.19868 -2.21239,2.54054 -3.06909,3.99511 1.83452,-1.09653 3.69139,-2.14531 5.56763,-3.13418 -2.1e-4,-0.0198 -0.003,-0.0378 -0.003,-0.0579 0.007,-0.45676 0.142,-0.88126 0.35192,-1.27382 z m 3.85559,0.22375 c -0.80047,0.81433 -1.58224,1.6272 -2.32699,2.45567 0.32287,0.051 0.68165,0.066 1.05162,0.0496 0.16676,-0.007 0.33594,-0.0213 0.50487,-0.0393 0.20823,-0.8674 0.46284,-1.6929 0.7705,-2.466 z m 13.91078,0.1695 c -0.21928,0.62977 -0.5181,1.25096 -0.89143,1.85518 -0.66686,1.07934 -1.55803,2.10911 -2.59519,3.05873 0.67937,0.62217 1.34725,1.27465 2.0066,1.95027 1.49791,-1.50585 2.82194,-3.41467 3.91967,-5.84822 -0.83416,-0.41558 -1.64672,-0.7527 -2.43965,-1.01596 z m -6.46525,0.25787 c -0.0874,0.099 -0.17301,0.19231 -0.25837,0.28319 0.0853,-0.0907 0.171,-0.18431 0.25837,-0.28319 z M 91.8038,189.989 c -0.6001,0.42774 -1.2876,0.80125 -1.99369,1.11156 0.0775,0.18243 0.15499,0.36482 0.23254,0.54725 0.93787,-0.10106 1.69104,-0.51111 2.44171,-1.23042 -0.22577,-0.14601 -0.45252,-0.28896 -0.68056,-0.4284 z m -8.51215,0.54518 c -0.45519,0.24087 -0.90911,0.48632 -1.36218,0.73381 l -0.17208,0.73225 c 0.36181,0.57752 0.78938,0.89606 1.29553,1.09554 0.39153,-0.49715 0.79668,-0.98377 1.21385,-1.46244 -0.0319,-0.0142 -0.0651,-0.0264 -0.0961,-0.0419 -0.42026,-0.20983 -0.74546,-0.56635 -0.87902,-1.0573 z m 9.82525,0.30386 c 0.1243,0.0846 0.24791,0.17124 0.37155,0.25786 -0.12364,-0.0865 -0.24725,-0.17336 -0.37155,-0.25786 z m 12.59922,0.37104 c -1.04291,2.66383 -2.37839,4.90272 -3.99354,6.75669 0.66304,0.74659 1.31733,1.51654 1.96215,2.31097 1.24034,-1.65031 2.14831,-3.42657 2.78535,-5.13095 0.36761,-0.98352 0.64399,-1.94005 0.84801,-2.83342 -0.54427,-0.40524 -1.07772,-0.77118 -1.60197,-1.1033 z m -12.0096,0.0393 c 0.1745,0.1243 0.34822,0.25069 0.52142,0.37878 -0.17328,-0.12794 -0.34684,-0.2547 -0.52142,-0.37878 z m -4.32789,0.0264 c -0.23098,0.0848 -0.6322,0.20381 -1.11726,0.31729 0.11361,0.80349 0.15992,1.70362 0.26718,2.23242 -0.94528,0.0872 -1.32313,0.15189 -1.86759,0.2496 -0.19762,1.54085 -0.28472,3.17643 -0.28009,4.86378 1.85098,-0.23008 3.77979,-0.77411 5.57589,-1.59783 -0.85839,-2.02163 -1.71884,-4.04332 -2.57813,-6.06526 z m 4.88238,0.37672 c 0.186,0.13789 0.37148,0.27755 0.55602,0.41961 -0.18454,-0.14207 -0.36996,-0.2819 -0.55602,-0.41961 z m -6.55569,0.0594 c -0.21129,0.0399 -0.42973,0.0779 -0.65833,0.10852 0.22971,-0.0308 0.44878,-0.068 0.65833,-0.10852 z m -0.1266,0.20102 a 0.57003582,0.75795965 0 0 0 -0.11007,0.015 c 0.0357,-0.009 0.0723,-0.015 0.11007,-0.015 z m 0.003,0 c 0.0388,1.4e-4 0.0765,0.006 0.11316,0.0155 a 0.57003582,0.75795965 0 0 0 -0.11316,-0.0155 z m 0.11369,0.0155 c 0.0357,0.01 0.0699,0.0242 0.10282,0.0424 a 0.57003582,0.75795965 0 0 0 -0.10282,-0.0424 z m -0.23773,0.003 a 0.57003582,0.75795965 0 0 0 -0.0925,0.0382 c 0.0297,-0.0161 0.0606,-0.0289 0.0925,-0.0382 z m 0.34677,0.0424 c 0.0328,0.0187 0.0642,0.042 0.0935,0.0682 a 0.57003582,0.75795965 0 0 0 -0.0935,-0.0682 z m -0.4558,0.006 a 0.57003582,0.75795965 0 0 0 -0.0832,0.0599 c 0.0262,-0.023 0.0543,-0.0428 0.0832,-0.0599 z m 0.55089,0.0636 c 0.0286,0.0258 0.055,0.0553 0.0796,0.0873 a 0.57003582,0.75795965 0 0 0 -0.0796,-0.0873 z m -0.64442,0.006 a 0.57003582,0.75795965 0 0 0 -0.077,0.0848 c 0.0238,-0.0313 0.0495,-0.0593 0.077,-0.0848 z m 7.57319,0.0305 c -0.74276,1.08269 -1.94836,1.8761 -3.57962,2.40347 0.37692,0.88663 0.75435,1.7734 1.13067,2.65979 1.72445,-0.83943 3.37624,-1.9117 4.77851,-3.12591 -0.76335,-0.6838 -1.53999,-1.32918 -2.32956,-1.93735 z m -7.65328,0.0584 a 0.57003582,0.75795965 0 0 0 -0.0651,0.1049 c 0.0193,-0.0375 0.0411,-0.0727 0.0651,-0.1049 z m 0.80976,0 c 0.023,0.0307 0.044,0.0642 0.0625,0.0997 a 0.57003582,0.75795965 0 0 0 -0.0625,-0.0997 z m 0.0708,0.11524 c 0.0177,0.0357 0.0329,0.0736 0.046,0.11317 a 0.57003582,0.75795965 0 0 0 -0.046,-0.11317 z m -0.95293,0.005 a 0.57003582,0.75795965 0 0 0 -0.0475,0.1173 c 0.0132,-0.0413 0.0294,-0.0801 0.0475,-0.1173 z m -0.0475,0.1173 a 0.57003582,0.75795965 0 0 0 -0.031,0.13126 c 0.007,-0.0453 0.0177,-0.0894 0.031,-0.13126 z m 1.05164,0.006 c 0.0122,0.0393 0.0217,0.0802 0.0289,0.12248 a 0.57003582,0.75795965 0 0 0 -0.0289,-0.12248 z m -1.19941,0.13436 c -0.0183,0.0958 -0.0356,0.19217 -0.0527,0.28887 0.0169,-0.0969 0.0347,-0.19295 0.0527,-0.28887 z m 0.11626,0.31419 a 0.57003582,0.75795965 0 0 0 0.03,0.12816 c -0.0127,-0.0409 -0.0228,-0.084 -0.03,-0.12816 z m -8.09458,0.13488 c -0.56878,0.33233 -1.13588,0.66868 -1.70016,1.01079 0.073,1.09108 0.41719,1.98278 0.9648,2.70216 0.44215,0.58086 1.02542,1.04833 1.71254,1.41438 0.48234,-1.01608 1.02971,-1.96835 1.6247,-2.87837 -1.1717,-0.53495 -1.67521,-1.35732 -2.27115,-2.20142 l 2.18797,0.31109 z m 8.13075,0.0119 a 0.57003582,0.75795965 0 0 0 0.0465,0.11317 c -0.018,-0.0356 -0.0333,-0.0736 -0.0465,-0.11317 z m -0.24236,0.0512 c -0.0577,0.34337 -0.10959,0.69173 -0.15502,1.04593 0.0454,-0.35412 0.098,-0.70213 0.15502,-1.04593 z m -3.72173,0.78186 c -0.57867,0.7598 -1.12133,1.54618 -1.62264,2.36885 1.39398,0.39047 2.81157,0.72855 4.48707,0.49971 0.0449,-0.89818 0.11763,-1.77844 0.22685,-2.63033 -1.00518,0.0605 -1.98726,0.20288 -3.09128,-0.23823 z m 14.411,0.524 c -1.45179,1.26386 -3.16177,2.36948 -4.94596,3.23546 0.33666,0.79263 0.67495,1.58476 1.01235,2.37712 2.16384,-0.80712 4.17706,-1.95686 5.95675,-3.64681 -0.665,-0.68189 -1.33858,-1.33953 -2.02314,-1.96577 z M 76.8527,194.6831 c -1.064,2.17676 -1.73882,4.52713 -1.99316,6.94221 0.0665,0.22315 0.1551,0.44637 0.26355,0.66869 0.37391,-2.94041 1.44007,-5.72937 2.06137,-6.46058 -0.14682,-0.3575 -0.25932,-0.74024 -0.33176,-1.15032 z m 33.70646,0.39584 c -0.94792,3.70309 -2.82932,5.8835 -4.85447,7.80004 0.47133,0.63069 0.93763,1.27399 1.40094,1.92495 1.93326,-1.61342 3.75314,-4.00749 4.88498,-8.28218 -0.48527,-0.5103 -0.96266,-0.9923 -1.43145,-1.44281 z m 3.55174,1.56838 c 0.0373,0.51494 0.0426,1.02821 0.0103,1.53841 0.22415,0.25988 0.45225,0.53579 0.67956,0.8077 -0.1836,-0.7952 -0.41379,-1.57862 -0.68938,-2.34611 z m -32.94528,0.0496 c -0.0963,0.16732 -0.19156,0.3358 -0.28422,0.50643 0.0929,-0.17048 0.18772,-0.33921 0.28422,-0.50643 z m -0.33745,0.60616 c -0.0772,0.14387 -0.15441,0.28774 -0.22892,0.43409 0.0747,-0.14623 0.15153,-0.29038 0.22892,-0.43409 z m 31.98667,0.10542 c 0.27461,0.30228 0.55168,0.61422 0.83201,0.93742 -0.28022,-0.32308 -0.55732,-0.63457 -0.83201,-0.93742 z m -20.67523,0.35761 c -1.85542,0.85007 -3.84302,1.41265 -5.75829,1.64434 0.009,0.70915 0.0347,1.42643 0.0734,2.14819 2.31389,-0.29067 4.56555,-0.71715 6.68023,-1.45469 -0.33179,-0.77929 -0.66429,-1.55839 -0.99531,-2.33784 z m -13.48288,0.0506 c -0.84743,1.50928 -1.62327,4.66119 -1.74048,6.65488 0.28784,0.24073 0.59634,0.4752 0.93483,0.69815 0.28702,-2.17526 0.80584,-4.10072 1.50897,-5.84408 0.11136,-0.27611 0.22807,-0.54718 0.3483,-0.81442 -0.3795,-0.20052 -0.73187,-0.43159 -1.05162,-0.69453 z m 22.74898,0.50126 c -1.83943,2.01039 -4.02325,3.54939 -6.53137,4.67516 0.42349,0.98888 0.84667,1.97768 1.27331,2.96571 3.1537,-1.1832 5.50852,-3.10998 7.2445,-5.2958 -0.65304,-0.80684 -1.3154,-1.58818 -1.98644,-2.34507 z m -92.50288,0.005 v 25.23252 h 2.53118 v -12.05003 h 7.41865 v -2.87321 h -7.41865 v -7.43624 h 8.22068 v -2.87321 z m 12.68193,0 v 25.23252 h 12.05512 v -2.87321 h -9.52397 v -9.14311 h 8.91006 v -2.87321 h -8.91006 v -7.46982 h 9.29815 v -2.87322 z m 14.13557,0 v 25.23257 h 2.53111 v -10.66463 h 2.75694 c 1.0025,0 1.79189,0.27629 2.36833,0.82837 0.58479,0.55208 1.18632,1.67305 1.80454,3.3631 l 2.39366,6.47299 h 2.7192 l -2.56884,-6.8957 c -0.51794,-1.41965 -1.03595,-2.53483 -1.55389,-3.34605 -0.50962,-0.81123 -1.03572,-1.34066 -1.57872,-1.58854 1.04426,-0.40561 1.83772,-1.13239 2.38072,-2.18023 0.55139,-1.04782 0.82735,-2.36615 0.82735,-3.95479 0,-2.43367 -0.5266,-4.25301 -1.57924,-5.45858 -1.05262,-1.20557 -2.64811,-1.80868 -4.78679,-1.80868 z m 15.73959,0 v 25.23257 h 2.53164 V 198.3228 Z m 10.2888,0 -7.14325,25.23257 h 2.66962 l 1.70429,-6.47299 h 8.43306 l 1.70429,6.47299 h 2.63189 l -7.13026,-25.23262 z m 18.3782,0.39222 c -0.11565,0.25752 -0.22818,0.51814 -0.33539,0.78393 -0.71072,1.7622 -1.23216,3.71595 -1.50842,5.94073 0.38418,0.22956 0.79868,0.44538 1.23558,0.6475 0.24554,-2.13738 0.59645,-4.40124 1.60301,-7.00319 -0.34555,-0.10473 -0.67821,-0.22739 -0.99478,-0.36897 z m 33.93591,0.12402 c -0.27546,2.27007 -1.21905,4.47559 -2.66391,6.53294 -0.62291,0.88694 -1.34011,1.7472 -2.13476,2.57659 1.22068,1.84569 2.41461,3.75675 3.591,5.70611 1.65119,-3.03665 2.51759,-6.44661 2.5187,-9.91309 -0.004,-1.2585 -0.12152,-2.51399 -0.35192,-3.75068 -0.32279,-0.3953 -0.64267,-0.77943 -0.95911,-1.15187 z m -28.15487,0.62167 c -0.60987,0.0566 -1.20939,0.0777 -1.79369,0.0646 -0.94449,4.14289 -0.89517,5.48932 -1.16272,7.68222 1.13046,0.23868 2.35054,0.38763 3.64578,0.42375 -0.38926,-2.71493 -0.65072,-5.49364 -0.68937,-8.17056 z m 17.78341,1.572 c -1.77237,2.20588 -4.16751,4.15175 -7.35716,5.35368 l 0.38706,0.81959 5.78619,-0.47078 2.30373,-4.26589 c -0.37071,-0.48588 -0.74361,-0.96579 -1.11982,-1.4366 z m -65.43993,0.0956 h 3.18326 c 1.2197,0 2.13873,0.37734 2.75693,1.13223 0.62659,0.74362 0.93948,1.85354 0.93948,3.32951 0,1.47598 -0.31289,2.59695 -0.93948,3.3631 -0.6182,0.75489 -1.53723,1.13223 -2.75693,1.13223 h -3.18321 z m 24.92565,0.55755 3.4463,12.55737 H 59.7437 Z m 50.95605,0.10542 c 0.061,5.3e-4 0.12848,0.0208 0.1969,0.0589 0.23985,0.1339 0.43421,0.45179 0.43408,0.71003 -1.6e-4,0.258 -0.19442,0.35883 -0.43408,0.22531 -0.23968,-0.1338 -0.43394,-0.45133 -0.43407,-0.70952 -1.1e-4,-0.17604 0.0916,-0.28607 0.23717,-0.28473 z m -39.33298,0.91209 c -0.0259,0.34556 -0.0431,0.69173 -0.0517,1.03818 0.009,2.96555 0.65042,5.89415 1.88153,8.585 0.31618,0.3678 0.71654,0.72932 1.19838,1.07487 -0.2992,-2.89072 -0.29422,-5.43476 -0.0382,-7.70651 -1.37743,-0.86175 -2.40348,-1.89319 -2.99001,-2.99154 z m 38.70719,0.2744 c 0,0 -1.22836,2.95066 -0.17931,3.7083 0.30067,0.21715 1.24836,-0.50556 1.75389,-1.97094 -0.2268,1.75332 -1.58697,4.86064 -2.77296,3.37395 -1.186,-1.48668 1.19838,-5.11131 1.19838,-5.11131 z m -19.05775,0.2036 c -2.30508,0.97791 -4.87651,1.61831 -7.69618,1.96939 0.0918,0.83282 0.19627,1.66493 0.31473,2.4908 2.63202,0.017 5.5563,-0.43487 8.64028,-1.52703 -0.42193,-0.97719 -0.84008,-1.95525 -1.25883,-2.93316 z m 1.44539,3.36207 c -2.4687,0.87744 -4.83762,1.34609 -7.04763,1.50069 l 2.09394,0.72088 c 1.7227,-0.37268 3.41807,-0.59437 5.24669,-1.54926 -0.0972,-0.2242 -0.19603,-0.44805 -0.293,-0.67231 z m 12.39925,0.80357 -5.12527,0.6165 -3.79513,5.34954 c 0.12853,0.28875 0.25495,0.57798 0.38396,0.86662 3.43752,-1.72162 6.52182,-3.87041 8.90799,-6.28541 -0.12303,-0.18466 -0.24802,-0.36392 -0.37155,-0.54725 z m -26.0749,0.1695 c -0.0644,1.4059 -0.0566,2.67542 -0.0114,3.87573 1.7295,0.30484 3.45551,0.44296 5.15421,0.72761 -0.14459,-0.7349 -0.28519,-1.47801 -0.41444,-2.23604 -0.10054,-0.58958 -0.19383,-1.18608 -0.28318,-1.78491 -1.5984,-0.0391 -3.08952,-0.24587 -4.44521,-0.58239 z m 14.86887,1.7663 c -0.72261,0.32444 -1.44524,0.66664 -2.16784,0.85214 l 1.38544,0.47698 -1.70582,1.62936 c 0.43693,-0.0493 1.51119,-0.36569 3.34708,-1.00098 -0.28747,-0.65226 -0.57359,-1.30479 -0.85886,-1.9575 z m -19.00764,0.89503 c 0.0228,0.84405 0.0735,1.71981 0.15658,2.63344 -0.0828,-0.91345 -0.1328,-1.78895 -0.15555,-2.63292 -2.7e-4,-1.5e-4 0,-2.5e-4 0,-5.3e-4 z m 32.82177,1.18856 c -2.23692,3.41319 -5.44748,5.60934 -9.18496,7.14685 0.33039,0.7205 0.66792,1.43947 1.00251,2.15904 3.60299,-2.12608 7.2046,-4.25363 8.91005,-8.13128 -0.24188,-0.39309 -0.48418,-0.78534 -0.7276,-1.17461 z m -28.69851,0.0253 c -2e-5,10e-6 0.003,10e-4 0.003,10e-4 0,0.003 0,0.006 0.003,0.01 -1.3e-4,-0.004 -2.3e-4,-0.007 0,-0.0103 0,-1.5e-4 -0.003,-2.6e-4 -0.004,-5.3e-4 z m 29.43283,1.16014 c 0.31668,0.51467 0.63233,1.03156 0.94621,1.55288 -0.31388,-0.5213 -0.62955,-1.03821 -0.94621,-1.55288 z m -12.89946,0.47181 c -2.20658,0.65627 -4.41317,1.29209 -6.61975,1.58853 l -1.92598,1.83968 c 3.08303,-0.0762 6.2743,-0.69363 9.14929,-2.06654 -0.20277,-0.45361 -0.40195,-0.90784 -0.60356,-1.36167 z m -13.72217,0.34313 a 0.48856448,0.62808011 18.64986 0 0 -0.0357,5.3e-4 0.48856448,0.62808011 18.64986 0 0 -0.0506,0.006 0.48856448,0.62808011 18.64986 0 0 -0.50435,0.70176 0.48856448,0.62808011 18.64986 0 0 0.50435,0.5147 0.48856448,0.62808011 18.64986 0 0 0.50488,-0.70177 0.48856448,0.62808011 18.64986 0 0 -0.41857,-0.52141 z m -2.69544,0.10955 c 0.036,0.54378 0.0762,1.07979 0.11575,1.61696 -0.0396,-0.53726 -0.0797,-1.07308 -0.11575,-1.61696 z m -5.10408,0.0481 c 0.24654,0.47207 0.51118,0.93424 0.79322,1.38545 -0.0402,-0.30087 -0.0805,-0.60158 -0.11472,-0.89556 -0.24257,-0.15836 -0.46591,-0.3227 -0.6785,-0.48989 z m 23.85383,0.49455 c -0.3705,0.1998 -0.74361,0.39683 -1.12292,0.58652 0.38325,-0.1844 0.75645,-0.38145 1.12292,-0.58652 z m 11.35848,0.34313 a 20.312479,20.567222 0 0 1 -1.06815,1.61333 c 0.38015,-0.51866 0.7361,-1.05746 1.06815,-1.61333 z m -33.96123,0.46198 c 0.0415,0.30379 0.0812,0.60539 0.12817,0.91571 l -0.0445,-0.32349 c 5.13329,5.09266 8.13035,5.60817 11.26236,6.37687 -0.14491,-0.45272 -0.29221,-0.92489 -0.44286,-1.43299 -0.11459,-0.38659 -0.23019,-0.80226 -0.34571,-1.21646 -3.79936,-0.46423 -7.47694,-1.90072 -10.55751,-4.31964 z m 0.12817,0.91571 c 0.38634,0.54353 0.79917,1.06359 1.23248,1.5627 a 20.312479,20.567222 0 0 1 -1.23248,-1.5627 z m 1.93064,-0.90279 c 0.60481,0.24235 1.2542,0.4639 1.93889,0.66043 -3e-5,-2.7e-4 3e-5,-8e-4 0,-0.001 -0.68458,-0.1965 -1.33406,-0.41736 -1.93889,-0.65939 z m 30.8012,1.18546 a 20.312479,20.567222 0 0 1 -1.23299,1.51205 c 0.43323,-0.48369 0.8459,-0.98698 1.23299,-1.51205 z m -31.40014,1.39061 c 0.41211,0.4678 0.8436,0.91517 1.29397,1.34101 a 20.312479,20.567222 0 0 1 -1.29397,-1.34101 z m 30.06741,0.23152 a 20.312479,20.567222 0 0 1 -1.37407,1.37769 c 0.47972,-0.43614 0.93705,-0.89686 1.37407,-1.37769 z m -28.63856,1.23506 c 0.44966,0.41754 0.91718,0.81348 1.40095,1.18752 a 20.312479,20.567222 0 0 1 -1.40095,-1.18752 z m 27.21642,0.185 a 20.312479,20.567222 0 0 1 -1.49706,1.22732 c 0.5181,-0.38544 1.01795,-0.79447 1.49706,-1.22732 z m -6.82646,0.61185 c -3.25051,2.06132 -7.34602,1.93223 -11.53933,1.81746 0.29292,0.91734 0.57645,1.73358 0.83352,2.40657 1.32376,0.27111 2.67092,0.40787 4.02148,0.40825 2.76784,-0.008 5.50479,-0.58901 8.04291,-1.70688 -0.45831,-0.97412 -0.90839,-1.94972 -1.35858,-2.9254 z m -18.84225,0.50488 c 0.50641,0.38421 1.02942,0.74488 1.5689,1.07952 a 20.312479,20.567222 0 0 1 -1.5689,-1.07952 z m 24.08793,0.17415 a 20.312479,20.567222 0 0 1 -1.61126,1.0697 c 0.55431,-0.33156 1.09234,-0.68782 1.61126,-1.0697 z m -22.45185,0.94878 c 0.56007,0.34435 1.13699,0.66079 1.72857,0.9493 a 20.312479,20.567222 0 0 1 -1.72857,-0.9493 z m 20.72328,0.19017 a 20.312479,20.567222 0 0 1 -1.7353,0.9157 c 0.59508,-0.2767 1.17282,-0.58439 1.7353,-0.9157 z m -18.89136,0.80718 c 0.56145,0.26991 1.13631,0.51324 1.72239,0.73071 a 20.312479,20.567222 0 0 1 -1.72239,-0.73071 z m 3.76256,0.46458 c 0.0109,0.0316 0.0214,0.0644 0.032,0.0956 -0.0106,-0.031 -0.0214,-0.0643 -0.032,-0.0956 z m -1.85467,0.33331 c 0.56681,0.20403 1.14382,0.38275 1.73013,0.53588 a 20.312479,20.567222 0 0 1 -1.73013,-0.53588 z m -44.04538,18.66242 -0.694,0.99839 h 0.54208 l 0.80772,-0.99839 z m -6.08695,1.43299 c -0.80071,0 -1.43129,0.26178 -1.89188,0.786 -0.46058,0.5217 -0.6909,1.23623 -0.6909,2.14354 0,0.90479 0.23032,1.61931 0.6909,2.14354 0.46059,0.5217 1.09117,0.7829 1.89188,0.7829 0.31179,0 0.60703,-0.0457 0.88572,-0.13643 0.28109,-0.0907 0.547,-0.22678 0.79738,-0.40825 v -0.79749 c -0.24093,0.23943 -0.49859,0.41847 -0.77256,0.53692 -0.27162,0.11846 -0.5606,0.17725 -0.86765,0.17725 -0.60465,0 -1.06783,-0.19646 -1.38906,-0.58963 -0.32123,-0.39568 -0.48162,-0.96545 -0.48162,-1.70893 0,-0.74602 0.16039,-1.31526 0.48162,-1.70843 0.32123,-0.39569 0.78441,-0.59376 1.38906,-0.59376 0.30705,0 0.59603,0.0593 0.86765,0.17777 0.27397,0.11845 0.53163,0.29749 0.77256,0.53692 v -0.80512 c -0.24564,-0.17894 -0.50906,-0.3128 -0.79013,-0.40101 -0.27871,-0.0907 -0.57647,-0.13591 -0.89297,-0.13591 z m 5.89214,0 c -0.74401,0 -1.339,0.26558 -1.78541,0.79737 -0.44405,0.52926 -0.66611,1.23998 -0.66611,2.13217 0,0.89219 0.22206,1.6029 0.66611,2.13217 0.44641,0.52926 1.0414,0.79427 1.78541,0.79427 0.74165,0 1.33466,-0.26501 1.77871,-0.79427 0.44405,-0.53179 0.66612,-1.24251 0.66612,-2.13217 0,-0.89219 -0.22207,-1.60291 -0.66612,-2.13217 -0.44405,-0.53179 -1.03706,-0.79737 -1.77871,-0.79737 z m 20.28973,0 c -0.5787,0 -1.03359,0.14367 -1.36427,0.43098 -0.32832,0.28732 -0.49197,0.68024 -0.49197,1.17926 0,0.43097 0.11907,0.76781 0.35761,1.00976 0.23855,0.24195 0.62479,0.41937 1.15859,0.53278 l 0.43564,0.091 c 0.36372,0.0781 0.62465,0.19514 0.7829,0.3514 0.1606,0.15626 0.24132,0.37286 0.24132,0.65009 0,0.31756 -0.11128,0.56243 -0.33332,0.7338 -0.22201,0.17139 -0.53705,0.25684 -0.94567,0.25684 -0.26927,0 -0.54346,-0.0441 -0.82217,-0.13229 -0.27871,-0.0882 -0.56319,-0.21936 -0.8537,-0.39326 v 0.78651 c 0.30234,0.11846 0.5938,0.20772 0.87489,0.2682 0.28343,0.0605 0.5506,0.0909 0.80098,0.0909 0.66371,0 1.16647,-0.14147 1.50894,-0.42374 0.34486,-0.28228 0.51729,-0.69643 0.51729,-1.24334 0,-0.45869 -0.12732,-0.82438 -0.3824,-1.09657 -0.25273,-0.27471 -0.64598,-0.46627 -1.17978,-0.57464 l -0.43254,-0.0946 c -0.39206,-0.0781 -0.65873,-0.17991 -0.80044,-0.30593 -0.13939,-0.12853 -0.20932,-0.31789 -0.20932,-0.5674 0,-0.2974 0.10502,-0.52652 0.31523,-0.68782 0.21259,-0.1613 0.51411,-0.24185 0.90384,-0.24185 0.22437,0 0.4567,0.0338 0.69763,0.10181 0.2409,0.068 0.49731,0.17144 0.76893,0.31006 v -0.74466 c -0.26924,-0.0958 -0.53266,-0.1676 -0.79012,-0.21549 -0.25744,-0.0479 -0.51009,-0.0718 -0.75809,-0.0718 z m 24.94264,0 c -0.74395,0 -1.339,0.26558 -1.78541,0.79737 -0.44405,0.52926 -0.66611,1.23998 -0.66611,2.13217 0,0.89219 0.22206,1.6029 0.66611,2.13217 0.44641,0.52926 1.04146,0.79427 1.78541,0.79427 0.74168,0 1.33467,-0.26501 1.77872,-0.79427 0.44405,-0.53179 0.66611,-1.24251 0.66611,-2.13217 0,-0.89219 -0.22206,-1.60291 -0.66611,-2.13217 -0.44405,-0.53179 -1.03704,-0.79737 -1.77872,-0.79737 z m -80.56769,0.1018 1.64746,2.63137 -1.88878,3.01325 h 0.77255 l 1.49863,-2.40089 1.48828,2.40089 h 0.62013 0.1483 0.62373 l 1.49863,-2.40089 1.48828,2.40089 h 0.76893 l -1.81435,-2.93367 1.57665,-2.51302 1.94871,5.44669 h 0.81132 l 2.01591,-5.64462 h -0.74414 l -1.67897,4.75217 -1.67587,-4.75217 h -0.55293 -0.76895 l -1.32136,2.09858 -1.31413,-2.09858 h -0.76896 l 1.64745,2.63137 -1.81385,2.89388 -1.73995,-2.8143 1.70069,-2.71095 h -0.76896 l -1.32136,2.09858 -1.31466,-2.09858 z m 13.378,0 v 5.64462 h 0.71572 v -5.64471 z m 3.25768,0 v 5.64462 h 3.40807 v -0.64285 H 26.0543 v -2.04536 h 2.51921 v -0.64234 H 26.0543 v -1.67121 h 2.6293 v -0.64295 z m 3.99616,0 v 5.64462 h 1.47019 c 1.02036,0 1.77178,-0.22854 2.25361,-0.68471 0.48183,-0.45618 0.72242,-1.1707 0.72242,-2.14354 0,-0.9678 -0.23934,-1.67851 -0.71882,-2.13217 -0.47945,-0.45618 -1.23214,-0.6842 -2.25721,-0.6842 z m 4.98883,0 v 5.64462 h 0.71572 v -5.64471 z m 6.02289,0 v 5.64462 h 0.71573 v -5.64471 z m 6.6611,0 v 5.64462 h 0.69453 v -4.72219 l 2.34508,4.72219 h 0.96375 v -5.64471 h -0.69453 v 4.72219 l -2.34506,-4.72219 z m 6.54481,0 v 5.64462 h 3.40858 v -0.64285 H 54.2686 v -2.04536 h 2.51923 v -0.64234 H 54.2686 v -1.67121 h 2.62876 v -0.64295 z m 3.99667,0 v 5.64462 h 3.29125 v -0.64285 h -2.57553 v -5.00186 z m 10.67273,0 -2.01951,5.64462 h 0.75446 l 0.48215,-1.44797 h 2.38434 l 0.48163,1.44797 h 0.74414 l -2.01589,-5.64462 z m 3.00085,0 v 5.64462 h 3.29126 v -0.64285 h -2.57556 v -5.00186 z m 1.9947,0 2.01951,5.64462 h 0.81132 l 2.01591,-5.64462 h -0.74414 l -1.67897,4.75217 -1.67587,-4.75217 z m 5.91695,0 -2.01951,5.64462 h 0.75449 l 0.48212,-1.44797 h 2.38435 l 0.48164,1.44797 h 0.74412 l -2.01589,-5.64462 z m 3.00085,0 v 5.64462 h 1.47019 c 1.02036,0 1.77178,-0.22854 2.25361,-0.68471 0.48184,-0.45618 0.72245,-1.1707 0.72245,-2.14354 0,-0.9678 -0.23934,-1.67851 -0.71882,-2.13217 -0.47948,-0.45618 -1.23214,-0.6842 -2.25724,-0.6842 z m 10.10481,0 v 5.64462 h 0.71573 v -2.3859 h 0.77927 c 0.28343,0 0.50676,0.062 0.66972,0.18552 0.16536,0.12349 0.33528,0.37436 0.51006,0.75241 l 0.67696,1.44797 h 0.76843 l -0.72607,-1.54254 c -0.14642,-0.31756 -0.29278,-0.56733 -0.43923,-0.74879 -0.14409,-0.18146 -0.29297,-0.29957 -0.44649,-0.35502 0.29525,-0.0907 0.5193,-0.25344 0.67281,-0.48783 0.1559,-0.23438 0.23411,-0.52933 0.23411,-0.8847 0,-0.54438 -0.14888,-0.95144 -0.44649,-1.22111 -0.2976,-0.26967 -0.74874,-0.40463 -1.35339,-0.40463 z m -48.20171,0.51832 c 0.51964,0 0.93067,0.20627 1.23301,0.6196 0.3047,0.41333 0.45733,0.97657 0.45733,1.68982 0,0.71072 -0.15263,1.27287 -0.45733,1.6862 -0.30234,0.41333 -0.71337,0.62012 -1.23301,0.62012 -0.51962,0 -0.93266,-0.20679 -1.23971,-0.62012 -0.30469,-0.41333 -0.45733,-0.97548 -0.45733,-1.6862 0,-0.71325 0.15264,-1.27649 0.45733,-1.68982 0.30705,-0.41333 0.72009,-0.6196 1.23971,-0.6196 z m 45.23237,0 c 0.51964,0 0.93067,0.20627 1.23301,0.6196 0.3047,0.41333 0.45734,0.97657 0.45734,1.68982 0,0.71072 -0.15264,1.27287 -0.45734,1.6862 -0.30234,0.41333 -0.71337,0.62012 -1.23301,0.62012 -0.51956,0 -0.93265,-0.20679 -1.2397,-0.62012 -0.3047,-0.41333 -0.45733,-0.97548 -0.45733,-1.6862 0,-0.71325 0.15263,-1.27649 0.45733,-1.68982 0.30705,-0.41333 0.72014,-0.6196 1.2397,-0.6196 z m -59.22015,0.10955 h 0.86455 c 0.72983,0 1.26371,0.17633 1.60145,0.52917 0.34012,0.35032 0.51006,0.90324 0.51006,1.65933 0,0.76113 -0.16994,1.31837 -0.51006,1.67122 -0.33774,0.35284 -0.87162,0.52916 -1.60145,0.52916 h -0.86455 z m 52.80041,0 h 0.86455 c 0.72983,0 1.26368,0.17633 1.60144,0.52917 0.34013,0.35032 0.51004,0.90324 0.51004,1.65933 0,0.76113 -0.16991,1.31837 -0.51004,1.67122 -0.33776,0.35284 -0.87161,0.52916 -1.60144,0.52916 h -0.86455 z m 10.10481,0 h 0.89969 c 0.34483,0 0.60449,0.0844 0.77927,0.25322 0.17714,0.16634 0.26612,0.41449 0.26612,0.74465 0,0.33016 -0.089,0.58103 -0.26612,0.75241 -0.17478,0.16886 -0.43444,0.25322 -0.77927,0.25322 h -0.89969 z m -24.32979,0.12454 0.97409,2.80913 h -1.94508 z m 10.9125,0 0.97412,2.80913 h -1.94511 z"
         style="fill:#000000;fill-opacity:0.98983047;stroke-width:1.03697717;stroke-miterlimit:4;stroke-dasharray:none"
         inkscape:connector-curvature="0" />
    </g>
  </g>
</svg>
