<?xml version="1.0" encoding="UTF-8" standalone="no"?>
<!-- Created with Inkscape (http://www.inkscape.org/) -->

<svg
   xmlns:dc="http://purl.org/dc/elements/1.1/"
   xmlns:cc="http://creativecommons.org/ns#"
   xmlns:rdf="http://www.w3.org/1999/02/22-rdf-syntax-ns#"
   xmlns:svg="http://www.w3.org/2000/svg"
   xmlns="http://www.w3.org/2000/svg"
   xmlns:sodipodi="http://sodipodi.sourceforge.net/DTD/sodipodi-0.dtd"
   xmlns:inkscape="http://www.inkscape.org/namespaces/inkscape"
   width="210mm"
   height="297mm"
   viewBox="0 0 210 297"
   version="1.1"
   id="svg1869"
   sodipodi:docname="Parte2.svg"
   inkscape:version="0.92.3 (2405546, 2018-03-11)">
  <defs
     id="defs1863" />
  <sodipodi:namedview
     id="base"
     pagecolor="#ffffff"
     bordercolor="#666666"
     borderopacity="1.0"
     inkscape:pageopacity="0.0"
     inkscape:pageshadow="2"
     inkscape:zoom="1.4"
     inkscape:cx="245.96661"
     inkscape:cy="146.2132"
     inkscape:document-units="mm"
     inkscape:current-layer="g6128"
     showgrid="false"
     inkscape:window-width="1920"
     inkscape:window-height="1015"
     inkscape:window-x="0"
     inkscape:window-y="0"
     inkscape:window-maximized="1" />
  <metadata
     id="metadata1866">
    <rdf:RDF>
      <cc:Work
         rdf:about="">
        <dc:format>image/svg+xml</dc:format>
        <dc:type
           rdf:resource="http://purl.org/dc/dcmitype/StillImage" />
        <dc:title></dc:title>
      </cc:Work>
    </rdf:RDF>
  </metadata>
  <g
     inkscape:label="Capa 1"
     inkscape:groupmode="layer"
     id="layer1">
    <g
       id="g6128"
       transform="translate(-8.46208,47.94888)">
      <g
         id="g6131"
         style="fill:#000000">
        <path
           inkscape:connector-curvature="0"
           style="fill:#000000;fill-opacity:0.80677969;stroke:none;stroke-width:0.26458332px;stroke-linecap:butt;stroke-linejoin:miter;stroke-opacity:1"
           d="m 104.51412,185.55755 c -0.019,4.33732 -0.17357,3.08227 -0.39016,4.19871 l -0.2713,0.21239 c 0.42008,0.0218 1.66399,0.69453 1.66399,0.69453 0.52496,-1.158 0.68704,-2.52659 0.50901,-4.37389 z m -11.30215,3.0639 c -0.13791,0.20309 -0.29801,0.39948 -0.48059,0.58704 -0.16106,0.16542 -0.34095,0.3232 -0.52967,0.47697 0.48786,0.30172 0.96792,0.62477 1.44486,0.95653 0.41712,-0.439 0.8165,-0.80859 1.24645,-1.29707 z m -0.72761,1.79575 c -0.75067,0.71931 -1.50384,1.12937 -2.44171,1.23042 0.40167,0.94491 0.80293,1.88964 1.2046,2.83445 1.63126,-0.52737 2.83686,-1.32077 3.57963,-2.40347 -0.7678,-0.5914 -1.54795,-1.14755 -2.34252,-1.6614 z m -4.22299,1.17461 c -0.36438,0.0853 -0.7716,0.16803 -1.21438,0.22737 -0.16052,0.72208 -0.28631,1.47713 -0.38603,2.25464 0.54446,-0.0977 0.92231,-0.16236 1.86759,-0.24959 -0.10726,-0.5288 -0.15357,-1.42893 -0.26718,-2.23242 z m -0.68265,0.31987 c 0.31486,4e-5 0.57005,0.33946 0.56999,0.7581 -1.6e-4,0.41843 -0.25529,0.75755 -0.56999,0.75757 -0.31469,-3e-5 -0.56983,-0.33914 -0.56999,-0.75757 -5e-5,-0.41864 0.25514,-0.75806 0.56999,-0.7581 z m -5.82133,0.0884 -0.3111,1.32292 -2.18797,-0.31109 c 0.61571,0.87211 1.01375,1.66879 2.27115,2.20141 l 1.52345,-2.11769 c -0.54856,-0.254 -0.90885,-0.47835 -1.29553,-1.09555 z m -2.28307,0.48266 -0.42582,0.23306 c 0.003,0.002 0.003,0.005 0.005,0.007 z m 23.84195,0.7767 a 0.72442432,0.90632537 41.797824 0 0 -0.16071,0.0202 0.72442432,0.90632537 41.797824 0 0 -0.81028,0.99219 0.72442432,0.90632537 41.797824 0 0 0.81028,0.62838 0.72442432,0.90632537 41.797824 0 0 0.81029,-0.99218 0.72442432,0.90632537 41.797824 0 0 -0.64958,-0.64854 z m -21.84466,2.91868 c -0.41339,0.67838 -0.7992,1.38097 -1.14877,2.11771 0.42664,0.19015 0.88434,0.34806 1.37512,0.46715 1.25574,0.30473 2.69894,0.37229 4.20748,0.22789 -0.004,-0.78309 0.0154,-1.55419 0.0532,-2.31303 -1.6755,0.22884 -3.09308,-0.10925 -4.48707,-0.49972 z m 30.51751,0.34365 c -1.13183,4.27469 -2.95171,6.66877 -4.88497,8.28218 0.6386,0.89722 1.27061,1.81113 1.89394,2.74609 0.75065,-0.78969 1.42975,-1.60496 2.01848,-2.44326 1.50632,-2.14483 2.44075,-4.42304 2.62879,-6.76083 -0.56343,-0.64959 -1.11482,-1.25482 -1.65624,-1.82418 z m -13.19918,1.07384 a 0.31419271,0.31419271 0 0 0 -0.3142,0.31419 0.31419271,0.31419271 0 0 0 0.3142,0.31419 0.31419271,0.31419271 0 0 0 0.31419,-0.31419 0.31419271,0.31419271 0 0 0 -0.31419,-0.31419 z m 0.59531,0.85989 a 0.31419271,0.31419271 0 0 0 -0.31419,0.3142 0.31419271,0.31419271 0 0 0 0.31419,0.31419 0.31419271,0.31419271 0 0 0 0.31419,-0.31419 0.31419271,0.31419271 0 0 0 -0.31419,-0.3142 z m -22.68027,0.53434 a 0.91882277,0.70802352 81.515813 0 0 -0.66302,0.84439 0.91882277,0.70802352 81.515813 0 0 0.71366,0.98237 0.91882277,0.70802352 81.515813 0 0 0.71313,-0.84181 0.91882277,0.70802352 81.515813 0 0 -0.71313,-0.98237 0.91882277,0.70802352 81.515813 0 0 -0.0506,-0.003 z m 21.02662,0.0444 a 0.31419271,0.31419271 0 0 0 -0.31419,0.31419 0.31419271,0.31419271 0 0 0 0.31419,0.31419 0.31419271,0.31419271 0 0 0 0.3142,-0.31419 0.31419271,0.31419271 0 0 0 -0.3142,-0.31419 z m -1.65364,0.59531 a 0.31419271,0.31419271 0 0 0 -0.31419,0.31419 0.31419271,0.31419271 0 0 0 0.31419,0.3142 0.31419271,0.31419271 0 0 0 0.31419,-0.3142 0.31419271,0.31419271 0 0 0 -0.31419,-0.31419 z m 0.52917,0.81029 a 0.31419271,0.31419271 0 0 0 -0.3142,0.31419 0.31419271,0.31419271 0 0 0 0.3142,0.31419 0.31419271,0.31419271 0 0 0 0.31419,-0.31419 0.31419271,0.31419271 0 0 0 -0.31419,-0.31419 z m -14.28597,1.26555 a 0.99390854,1.0757599 0 0 0 -0.99372,1.07591 0.99390854,1.0757599 0 0 0 0.99372,1.07538 0.99390854,1.0757599 0 0 0 0.99425,-1.07538 0.99390854,1.0757599 0 0 0 -0.99425,-1.07591 z m 7.82278,0.0465 a 0.91205722,0.94713639 0 0 0 -0.91208,0.94723 0.91205722,0.94713639 0 0 0 0.91208,0.94723 0.91205722,0.94713639 0 0 0 0.91209,-0.94723 0.91205722,0.94713639 0 0 0 -0.91209,-0.94723 z m 15.43939,1.75597 -1.36118,2.97811 3.40032,-0.12558 c -0.67082,-0.97418 -1.35144,-1.92352 -2.03914,-2.85253 z m -9.26664,3.64112 c -1.8788,1.01395 -3.61362,1.23484 -5.37744,1.61644 l 3.97909,1.36994 c 0.77322,-0.19844 1.54652,-0.5756 2.31974,-0.91933 z m -16.08584,0.88625 c -0.0119,-2.7e-4 -0.0236,-2e-4 -0.0356,5.3e-4 -0.0167,10e-4 -0.0334,0.003 -0.0501,0.006 -0.2788,0.0515 -0.50491,0.36577 -0.50488,0.70177 -8e-5,0.33606 0.22603,0.56657 0.50488,0.51469 0.27863,-0.0518 0.50442,-0.36598 0.50437,-0.70176 -8e-5,-0.29576 -0.17674,-0.51582 -0.4186,-0.52142 z m 16.87287,0.12144 c 0.54531,1.25271 1.09477,2.50444 1.64796,3.75533 l 2.76471,-3.75533 z m -6.74015,1.63814 0.0294,1.37149 -1.39991,0.4005 1.4206,0.54622 0.0325,1.52083 0.88109,-1.16943 1.50481,0.57877 -0.97462,-1.28209 0.97462,-1.29294 -1.60713,0.45992 z m -12.2835,0.38344 c 0.0303,1.12549 0.10941,2.30722 0.24961,3.55999 0.10695,0.067 0.21053,0.13508 0.32348,0.2005 1.04857,0.60735 2.34918,1.13885 3.8096,1.55805 -0.0981,-1.34061 -0.2019,-2.67033 -0.25579,-4.09381 0,-0.003 0,-0.006 -0.003,-0.01 2e-5,1e-5 -0.003,-0.001 -0.003,-0.001 -1.37626,-0.24277 -2.75426,-0.59551 -4.12277,-1.21388 z m 20.01997,1.01027 c -1.94104,0.67526 -3.05128,1.00242 -3.50158,1.05317 l -2.48253,2.37092 c 2.23877,-0.30077 4.47757,-0.95056 6.71637,-1.61696 z m 13.52838,1.35289 c -1.70545,3.87766 -5.30707,6.0052 -8.91006,8.13129 0.26935,0.57924 0.53491,1.15924 0.8072,1.73788 3.78888,-1.76182 6.95054,-4.66152 9.05578,-8.30544 -0.31607,-0.52497 -0.63402,-1.04547 -0.95292,-1.56373 z m -12.10106,2.26911 c -3.34971,1.59683 -7.0947,2.19289 -10.61744,2.1115 0.18388,0.72786 0.36978,1.41674 0.55552,2.0836 3.4009,0.0715 7.90146,-0.26897 11.06186,-1.98851 -0.33377,-0.7354 -0.67006,-1.4704 -0.99994,-2.20659 z m -20.97858,0.60617 0.0445,0.3235 c 2.87322,4.04208 7.09735,6.89127 11.88816,8.01863 -0.21239,-0.57579 -0.43757,-1.23846 -0.67025,-1.96526 -3.132,-0.76869 -6.12907,-1.2842 -11.26236,-6.37687 z m 17.26613,3.5941 a 0.73666162,0.74835467 0 0 0 -0.73639,0.74879 0.73666162,0.74835467 0 0 0 0.73639,0.74827 0.73666162,0.74835467 0 0 0 0.73692,-0.74827 0.73666162,0.74835467 0 0 0 -0.73692,-0.74879 z m -2.55797,6.50451 c -2.25226,0 -4.02611,0.69163 -5.32164,2.07481 -1.29556,1.37653 -1.94355,3.26202 -1.94355,5.65598 0,2.38732 0.64799,4.27229 1.94355,5.65547 1.29553,1.37653 3.06938,2.06499 5.32164,2.06499 0.87699,0 1.70733,-0.11975 2.49132,-0.35915 0.7906,-0.2394 1.53797,-0.59866 2.24224,-1.07745 v -2.10478 c -0.67768,0.63174 -1.40179,1.1039 -2.17249,1.41645 -0.76399,0.31254 -1.57801,0.46922 -2.44171,0.46922 -1.70082,0 -3.00265,-0.51911 -3.9062,-1.5565 -0.90358,-1.04403 -1.35549,-2.54653 -1.35549,-4.50825 0,-1.96837 0.45191,-3.47138 1.35549,-4.50877 0.90355,-1.04403 2.20538,-1.56631 3.9062,-1.56631 0.8637,0 1.67772,0.15668 2.44171,0.46922 0.7707,0.31255 1.49481,0.78471 2.17249,1.41645 v -2.12493 c -0.69096,-0.47214 -1.4315,-0.82455 -2.22208,-1.0573 -0.78398,-0.23939 -1.62121,-0.35915 -2.51148,-0.35915 z m 16.57366,0 c -2.0928,0 -3.76727,0.70165 -5.02295,2.10478 -1.24902,1.39648 -1.87328,3.27195 -1.87328,5.62601 0,2.35407 0.62426,4.22902 1.87328,5.6255 1.25568,1.39648 2.93015,2.09496 5.02295,2.09496 2.08616,0 3.75375,-0.69848 5.0028,-2.09496 1.24904,-1.40313 1.87327,-3.27808 1.87327,-5.6255 0,-2.35406 -0.62423,-4.22953 -1.87327,-5.62601 -1.24905,-1.40313 -2.91664,-2.10478 -5.0028,-2.10478 z M 8.8352,225.78456 v 14.89262 h 2.01282 v -14.89263 z m 4.34496,0 v 14.89262 h 1.95337 v -12.45867 l 6.59754,12.45867 h 2.71042 v -14.89263 h -1.95336 v 12.45867 l -6.59702,-12.45867 z m 11.53107,0 v 1.69602 h 5.28185 v 13.1966 h 2.02264 v -13.19661 h 5.28185 v -1.69602 z m 12.8659,0 v 14.89262 h 9.58702 v -1.6955 h -7.57423 v -5.39657 h 7.08588 v -1.69602 h -7.08588 v -4.40852 h 7.39489 v -1.69602 z m 11.24169,0 v 14.89262 h 2.0128 v -6.29419 h 2.19262 c 0.79727,0 1.42518,0.16302 1.88363,0.48886 0.46505,0.32585 0.94339,0.98741 1.43504,1.98489 l 1.90323,3.82044 h 2.16268 l -2.04277,-4.06952 c -0.41193,-0.83788 -0.82418,-1.49627 -1.23611,-1.97507 -0.40526,-0.47879 -0.82335,-0.79163 -1.25521,-0.93793 0.83045,-0.23939 1.46156,-0.6683 1.89341,-1.28674 0.4385,-0.61844 0.65784,-1.39659 0.65784,-2.33423 0,-1.43637 -0.4186,-2.50996 -1.25574,-3.2215 -0.83712,-0.71154 -2.10616,-1.06764 -3.80699,-1.06764 z m 12.51707,0 v 14.89262 h 1.95337 v -12.45867 l 6.59751,12.45867 h 2.71045 v -14.89263 h -1.95337 v 12.45867 l -6.59701,-12.45867 z m 17.43046,0 -5.68029,14.89263 h 2.12236 l 1.35549,-3.82044 h 6.70708 l 1.35546,3.82044 h 2.09238 l -5.67045,-14.89263 z m 20.67936,0 v 14.89262 h 2.01332 v -14.89263 z m 18.7363,0 v 14.89262 h 1.9534 v -12.45867 l 6.59751,12.45867 h 2.71042 v -14.89263 h -1.95336 v 12.45867 l -6.59702,-12.45867 z m 17.43046,0 -5.68026,14.89263 h 2.12236 l 1.35546,-3.82044 h 6.70708 l 1.35549,3.82044 h 2.09238 l -5.67048,-14.89263 z m 8.44135,0 v 14.89262 h 9.25835 v -1.6955 h -7.24503 v -13.19713 z m -34.22322,1.36684 c 1.46164,0 2.6176,0.54497 3.468,1.63556 0.85706,1.09058 1.28572,2.57723 1.28572,4.45916 0,1.87527 -0.42866,3.35824 -1.28572,4.44882 -0.8504,1.09059 -2.00636,1.63556 -3.468,1.63556 -1.46163,0 -2.62448,-0.54497 -3.48816,-1.63556 -0.85706,-1.09058 -1.28571,-2.57355 -1.28571,-4.44882 0,-1.88193 0.42865,-3.36858 1.28571,-4.45916 0.86368,-1.09059 2.02653,-1.63556 3.48816,-1.63556 z m -58.99898,0.28939 h 2.53163 c 0.96999,0 1.70046,0.22263 2.1921,0.66817 0.49829,0.43889 0.74777,1.0936 0.74777,1.96474 0,0.87114 -0.24948,1.53321 -0.74777,1.98541 -0.49164,0.44554 -1.22211,0.66817 -2.1921,0.66817 h -2.53163 z m 29.07109,0.32917 2.74039,7.41092 h -5.47097 z m 56.84615,0 2.74039,7.41092 h -5.4715 z"
           id="path1739" />
      </g>
    </g>
  </g>
</svg>
